# xmcd
#
# Track frame offsets:
#	187
#	24937
#	40292
#	52387
#	85725
#	108412
#	123487
#	133062
#	179587
#	197300
#	207025
#	228337
#
# Disc length: 3197 seconds
#
# Revision: 1
# Processed by: cddbd v1.5.1PL0 Copyright (c) Steve Scherf et al.
# Submitted via: CDex 1.50Beta5
#
DISCID=a20c7b0c
DTITLE=橋本一子 - ハイ・エキセントリック・ピアノ・ミュージック
DYEAR=1989
DGENRE=
TTITLE0=音と香りは夕暮れの大気に漂う
TTITLE1=雪の上の足跡
TTITLE2=亜麻色の髪の乙女
TTITLE3=聖母の初聖体拝受
TTITLE4=天使のまなざし
TTITLE5=予言者と羊飼いと東方の博士のまなざし
TTITLE6=プロローグ 閉ざされた夢は静かにきらめく
TTITLE7=悲しみは甘く柔らかな記憶
TTITLE8=銀色の光は香りの中を踊る
TTITLE9=すべての眠りと目覚めのために
TTITLE10=恍惚の惑星
TTITLE11=エピローグ 終わりは始まりの始まりは終わりのために
EXTD=
EXTT0=
EXTT1=
EXTT2=
EXTT3=
EXTT4=
EXTT5=
EXTT6=
EXTT7=
EXTT8=
EXTT9=
EXTT10=
EXTT11=
PLAYORDER=
